<?xml version="1.0" standalone="no"?>
<!DOCTYPE svg PUBLIC "-//W3C//DTD SVG 20010904//EN"
 "http://www.w3.org/TR/2001/REC-SVG-20010904/DTD/svg10.dtd">
<svg version="1.0" xmlns="http://www.w3.org/2000/svg"
 width="200.000000pt" height="200.000000pt" viewBox="0 0 200.000000 200.000000"
 preserveAspectRatio="xMidYMid meet">

<g transform="translate(0.000000,200.000000) scale(0.100000,-0.100000)"
fill="#000000" stroke="none">
<path d="M0 1000 l0 -1000 1000 0 1000 0 0 1000 0 1000 -1000 0 -1000 0 0
-1000z m1818 283 c1 -288 -1 -523 -5 -523 -5 0 -244 236 -533 525 l-525 525
530 -2 530 -3 3 -522z m-858 -852 c0 -59 5 -122 11 -139 18 -52 92 -51 104 1
3 12 6 71 8 131 l2 109 30 2 c17 1 36 0 43 -3 16 -6 16 -233 -1 -281 -16 -46
-52 -70 -114 -77 -63 -8 -133 21 -153 64 -13 29 -27 260 -17 286 4 11 19 16
47 16 l40 0 0 -109z m-572 93 c24 -7 52 -50 52 -82 0 -11 -8 -30 -19 -43 -18
-23 -18 -23 11 -51 27 -25 30 -33 25 -71 -4 -27 -14 -49 -30 -63 -30 -25 -116
-39 -188 -29 l-49 7 0 169 0 169 88 0 c48 0 97 -3 110 -6z m384 -151 c32 -87
58 -165 60 -172 2 -11 -7 -15 -37 -14 -22 1 -43 2 -47 2 -4 1 -13 13 -20 28
-11 23 -20 28 -58 29 -59 2 -67 -2 -79 -37 -9 -27 -14 -29 -50 -26 -22 2 -43
6 -47 9 -3 4 22 81 56 172 l63 166 51 0 52 0 56 -157z m698 117 l0 -40 -65 0
c-62 0 -65 -1 -65 -25 0 -23 4 -24 63 -27 l62 -3 0 -35 0 -35 -63 -3 c-62 -3
-63 -3 -60 -30 3 -26 6 -27 66 -30 l63 -3 -3 -37 -3 -37 -105 0 -105 0 -3 173
-2 172 110 0 110 0 0 -40z m316 7 c17 -20 24 -40 24 -68 0 -49 -13 -74 -46
-92 l-25 -13 50 -65 c28 -35 51 -67 51 -70 0 -7 -107 -5 -114 2 -2 2 -19 29
-37 59 l-34 55 -5 -60 -5 -60 -42 0 -43 -1 0 174 0 174 101 -4 c96 -3 102 -4
125 -31z"/>
<path d="M280 430 c0 -29 2 -31 33 -28 27 2 32 7 32 28 0 21 -5 26 -32 28 -31
3 -33 1 -33 -28z"/>
<path d="M287 323 c-4 -3 -7 -19 -7 -35 0 -26 3 -28 40 -28 37 0 40 2 40 29 0
29 -14 41 -49 41 -10 0 -21 -3 -24 -7z"/>
<path d="M650 396 c-26 -70 -25 -76 13 -76 l35 0 -14 47 c-18 59 -21 62 -34
29z"/>
<path d="M1650 420 c0 -33 3 -40 19 -40 18 0 51 24 51 36 0 20 -25 44 -45 44
-22 0 -25 -4 -25 -40z"/>
</g>
</svg>
